<svg width="245" height="17" viewBox="0 0 245 17" fill="none" xmlns="http://www.w3.org/2000/svg">
<path fill-rule="evenodd" clip-rule="evenodd" d="M12.7797 3.97827C15.7949 3.97827 18.2434 6.21413 18.2434 8.97401C18.2434 11.7339 15.8019 13.9697 12.7797 13.9697C9.75747 13.9697 7.30893 11.7339 7.30893 8.97401C7.30893 6.21413 9.76447 3.97827 12.7797 3.97827ZM23.1965 8.75043L26.2886 4.01321H22.7208L21.5944 6.10932L20.3072 4.01321H16.8093L19.7825 8.69453L16.5504 13.8999H20.0483L21.4895 11.7129L22.9446 13.8999H26.5125L23.1965 8.75043ZM3.7201 6.73814H7.39991L7.36493 4.06211H0.760857V13.9208H3.68512V10.8326H6.86822V8.03774H3.7201V6.73814ZM13.7312 6.74513V10.9374C13.7312 11.4125 13.6682 11.8038 12.7797 11.8038C11.8912 11.8038 11.8842 11.3077 11.8842 11.3077V6.73814C11.8842 6.73814 11.8842 6.03944 12.8147 6.03944C13.7451 6.03944 13.7312 6.74513 13.7312 6.74513ZM52.565 11.6361C52.8378 11.6361 52.9707 11.3846 52.9707 10.8815L52.9987 4.04818H54.9786V10.8815C54.9897 11.6585 54.7438 12.4174 54.279 13.0405C53.8964 13.6113 53.2527 13.9524 52.565 13.9488H47.0173C46.3265 13.9573 45.6785 13.6153 45.2963 13.0405C44.8415 12.4142 44.6078 11.6548 44.6317 10.8815V4.04818H46.5975V10.8815C46.5975 11.3846 46.7375 11.6361 47.0173 11.6361H52.565ZM63.8773 7.8421H58.5954C58.3226 7.8421 58.1897 7.59755 58.1897 7.14339C58.1897 6.68924 58.3226 6.39578 58.5954 6.39578H65.8501V4.08298H58.5954C57.9087 4.07668 57.2648 4.41532 56.8814 4.9844C56.4175 5.60798 56.1717 6.36658 56.1819 7.14339C56.1614 7.89572 56.3928 8.63335 56.8395 9.23951C57.226 9.81572 57.873 10.1636 58.5674 10.1688H63.8423C64.1151 10.1688 64.2481 10.4133 64.2481 10.9094C64.2481 11.4055 64.1151 11.65 63.8423 11.65H56.6226V13.9628H63.8773C64.5704 13.9592 65.2171 13.614 65.6052 13.0405C66.4534 11.746 66.4534 10.0728 65.6052 8.77836C65.2203 8.19949 64.573 7.84881 63.8773 7.8421ZM69.2431 13.9488H67.2773V4.04818H69.2431V13.9488ZM77.4982 10.6719L72.4612 4.04818H70.5023V13.9488H72.4612V7.29715L77.5052 13.9628H79.457V4.04818H77.4982V10.6719ZM89.6709 13.9488H80.7162V4.04818H89.6989V6.36089H82.7031V7.84214H89.2512V10.1549H82.6751V11.6361H89.6709V13.9488ZM98.6046 7.84209H93.3298C93.0569 7.84209 92.924 7.59754 92.924 7.14339C92.924 6.68923 93.0569 6.39577 93.3298 6.39577H100.577V4.08297H93.3298C92.6412 4.07684 91.9952 4.41517 91.6088 4.98439C91.1601 5.61371 90.927 6.37099 90.9442 7.14339C90.9249 7.89446 91.1535 8.63102 91.5948 9.2395C91.9828 9.81775 92.6328 10.1659 93.3298 10.1688H98.6046C98.8775 10.1688 99.0104 10.4133 99.0104 10.9094C99.0104 11.4055 98.8775 11.65 98.6046 11.65H91.3499V13.9627H98.6046C99.3003 13.9615 99.9501 13.616 100.34 13.0405C101.188 11.746 101.188 10.0728 100.34 8.77836C99.9532 8.19744 99.3029 7.84649 98.6046 7.84209ZM109.672 7.84211C110.368 7.84338 111.017 8.18881 111.407 8.7644V8.77838C112.255 10.0728 112.255 11.746 111.407 13.0405C111.017 13.6161 110.368 13.9615 109.672 13.9628H102.417V11.6501H109.665C109.938 11.6501 110.078 11.4055 110.078 10.9094C110.078 10.4133 109.938 10.1688 109.665 10.1688H104.39C103.696 10.1637 103.049 9.81574 102.662 9.23952C102.221 8.63105 101.992 7.89449 102.012 7.14341C101.994 6.37102 102.227 5.61373 102.676 4.98441C103.061 4.41726 103.704 4.0792 104.39 4.08305H111.638V6.3958H104.39C104.117 6.3958 103.984 6.68925 103.984 7.14341C103.984 7.59757 104.117 7.84211 104.39 7.84211H109.672ZM42.554 8.9251C43.1522 8.37438 43.4708 7.58417 43.4215 6.77309C43.4425 6.09845 43.2355 5.43637 42.8338 4.89358C42.4216 4.33883 41.7621 4.02258 41.0709 4.04814H33.0676V13.9488H41.2178C41.909 13.9744 42.5685 13.6581 42.9807 13.1034C43.3945 12.563 43.6094 11.8968 43.5894 11.2169C43.6538 10.3273 43.2644 9.46543 42.554 8.9251ZM41.0708 6.36084H35.0334V7.87004H41.0708C41.3577 7.87004 41.4976 7.61851 41.4976 7.11544C41.4976 6.61238 41.3577 6.36084 41.0708 6.36084ZM41.2247 11.6361H35.0334V10.1548H41.2247C41.5046 10.1548 41.6515 10.3994 41.6515 10.8954C41.6515 11.3915 41.5046 11.6361 41.2247 11.6361ZM26.9882 4.01321H30.1294L31.6055 15.1575H30.2693L26.9882 4.01321ZM24.0569 8.69456L28.1005 15.1646H29.7865L26.2396 5.3827L24.0569 8.69456ZM0.760857 15.1645V14.4654H26.9616L27.3617 15.1645H0.760857Z" fill="white"/>
<path d="M175.904 6.09232H175.654V8.56593H175.904C176.738 8.56593 177.68 8.40848 177.68 7.33166C177.68 6.25485 176.738 6.0974 175.904 6.0974V6.09232Z" fill="white"/>
<path d="M187.135 7.18436L186.077 10.3386H188.204L187.161 7.18436H187.135Z" fill="white"/>
<path d="M125.502 6.30057H124.902V11.8522H125.477C127.003 11.8522 128.306 11.0091 128.306 9.07894C128.306 7.30119 127.146 6.30565 125.502 6.30565V6.30057Z" fill="white"/>
<path d="M116.744 1.91205V16.3474H214.402V1.91205H116.744ZM125.975 14.0363H122.347V4.11646H125.975C128.713 4.11646 130.973 6.28532 130.973 9.07386C130.973 11.8624 128.703 14.0313 125.975 14.0313V14.0363ZM137.869 6.30056H134.83V7.95641H137.716V10.1405H134.83V11.8522H137.869V14.0363H132.271V4.11646H137.869V6.30056ZM148.861 14.0363L148.143 8.3272H148.118L145.756 14.0363H144.739L142.484 8.3272H142.459L141.639 14.0363H139.095L140.764 4.11646H143.283L145.278 9.41925L147.39 4.11646H149.935L151.421 14.0363H148.866H148.861ZM157.675 14.3665C154.52 14.3665 152.235 12.1062 152.235 8.89608C152.235 5.89422 154.845 3.79139 157.675 3.79139C160.504 3.79139 163.115 5.89422 163.115 8.89608C163.115 12.1062 160.83 14.3665 157.675 14.3665ZM171.563 7.44848C171.039 6.73738 170.194 6.35643 169.319 6.35643C167.751 6.35643 166.698 7.56531 166.698 9.10433C166.698 10.6434 167.767 11.8014 169.359 11.8014C170.194 11.8014 171.029 11.3951 171.563 10.75V13.8433C170.713 14.1074 170.102 14.3055 169.308 14.3055C167.94 14.3055 166.632 13.7773 165.619 12.8478C164.535 11.8624 164.041 10.5723 164.041 9.09926C164.041 7.74308 164.55 6.44278 165.492 5.46756C166.459 4.46694 167.853 3.8625 169.237 3.8625C170.057 3.8625 170.815 4.04535 171.573 4.36027V7.45356L171.563 7.44848ZM178.102 14.0414L175.69 10.2269H175.665V14.0414H173.11V4.11646H176.932C178.876 4.11646 180.352 5.05105 180.352 7.16912C180.352 8.53545 179.593 9.71893 178.199 9.97289L181.293 14.0363H178.112L178.102 14.0414ZM189.537 14.0414L188.896 12.3195H185.375L184.698 14.0414H181.985L185.766 4.12154H188.56L192.265 14.0414H189.537ZM199.649 7.44848C199.125 6.73738 198.28 6.35643 197.405 6.35643C195.838 6.35643 194.784 7.56531 194.784 9.10433C194.784 10.6434 195.853 11.8014 197.446 11.8014C198.28 11.8014 199.115 11.3951 199.649 10.75V13.8433C198.799 14.1074 198.189 14.3055 197.395 14.3055C196.026 14.3055 194.718 13.7773 193.705 12.8478C192.621 11.8624 192.128 10.5723 192.128 9.09926C192.128 7.74308 192.637 6.44278 193.578 5.46756C194.545 4.46694 195.939 3.8625 197.324 3.8625C198.148 3.8625 198.901 4.04535 199.659 4.36027V7.45356L199.649 7.44848ZM206.703 9.27703V14.0414H204.148V9.27703L200.519 4.12154H203.583L205.42 6.81865L207.257 4.12154H210.321L206.692 9.27703H206.703Z" fill="white"/>
<path d="M157.67 6.29041C156.143 6.29041 154.891 7.53991 154.891 8.90624C154.891 10.618 156.143 11.8675 157.67 11.8675C159.197 11.8675 160.448 10.618 160.448 8.90624C160.448 7.53991 159.197 6.29041 157.67 6.29041Z" fill="white"/>
<path d="M218.621 1.35333L219.293 3.41045H221.461L219.705 4.68535L220.377 6.74247L218.621 5.47264L216.865 6.74247L217.537 4.68535L215.781 3.41045H217.949L218.621 1.35333Z" fill="white"/>
<path d="M242.829 11.1716V7.24531H239.405V11.1716H236.835L241.639 0.616821H237.893L232.565 11.776V14.1227H239.405V16.3119H242.829V14.1227H244.239V11.1716H242.829Z" fill="white"/>
<path d="M229.644 9.91702C230.59 8.74878 231.893 7.15388 231.893 5.08153C231.893 2.47077 229.832 0.5 227.104 0.5C224.377 0.5 222.336 2.47077 222.336 5.08153V5.22883H225.262L225.272 5.09169C225.349 4.01487 225.975 3.3698 226.957 3.3698C227.797 3.3698 228.636 3.89805 228.636 5.08153C228.636 6.00596 228.229 6.91007 227.308 8.02244L222.356 14.0922V16.2865H231.72V13.376H226.819L229.644 9.91702Z" fill="white"/>
</svg>
